<?xml version="1.0" standalone="no"?>
<!DOCTYPE svg PUBLIC "-//W3C//DTD SVG 20010904//EN"
 "http://www.w3.org/TR/2001/REC-SVG-20010904/DTD/svg10.dtd">
<svg version="1.0" xmlns="http://www.w3.org/2000/svg"
 width="800.000000pt" height="800.000000pt" viewBox="0 0 800.000000 800.000000"
 preserveAspectRatio="xMidYMid meet">
<metadata>
Created by potrace 1.14, written by Peter Selinger 2001-2017
</metadata>
<g transform="translate(0.000000,800.000000) scale(0.100000,-0.100000)"
fill="#000000" stroke="none">
<path d="M3661 6630 c-131 -90 -246 -180 -390 -305 -103 -89 -310 -307 -377
-395 -114 -152 -199 -305 -269 -479 -14 -36 -25 -72 -25 -81 0 -9 -3 -20 -7
-24 -4 -3 -8 -12 -9 -19 -1 -7 -7 -32 -15 -57 -7 -25 -13 -49 -14 -55 -3 -27
-18 -122 -22 -140 -10 -40 -11 -332 -2 -390 25 -158 112 -350 215 -472 11 -12
33 -39 49 -60 61 -76 159 -176 324 -332 24 -22 47 -41 51 -41 5 0 10 -4 12 -8
3 -7 65 -59 154 -130 16 -12 67 -50 114 -83 47 -33 93 -67 103 -75 10 -8 29
-20 43 -26 13 -6 24 -15 24 -20 0 -4 5 -8 11 -8 5 0 36 -18 68 -39 101 -69
469 -283 581 -339 30 -14 57 -29 60 -32 6 -7 102 -54 112 -54 3 -1 10 -4 14
-9 4 -4 12 -7 18 -7 11 0 -29 40 -154 150 -41 36 -85 76 -99 89 -14 13 -55 49
-91 80 -181 158 -527 521 -640 670 -14 18 -30 38 -36 44 -30 34 -127 183 -168
258 -129 241 -149 419 -63 582 81 155 264 278 517 348 54 15 57 16 95 23 17 3
41 8 55 11 26 5 53 9 165 24 141 20 299 37 405 46 77 6 155 12 247 20 222 17
253 27 142 44 -114 18 -194 28 -314 38 -179 16 -754 8 -895 -12 -14 -2 -50 -6
-80 -10 -78 -9 -108 -13 -165 -23 -61 -12 -58 -11 -176 -17 -90 -4 -98 -3
-129 20 -86 63 -114 185 -73 320 8 26 64 147 75 160 5 5 43 62 85 125 98 148
355 486 403 530 3 3 30 34 60 70 30 36 57 67 60 70 17 14 62 81 58 85 -3 3
-51 -27 -107 -65z"/>
<path d="M3421 5914 c-59 -18 -101 -37 -101 -46 0 -5 -6 -8 -13 -8 -23 0 -99
-82 -122 -133 -32 -68 -30 -149 5 -201 36 -53 113 -88 198 -91 122 -3 226 38
302 122 154 169 74 363 -153 368 -40 1 -92 -4 -116 -11z"/>
<path d="M2242 4564 c-63 -12 -141 -30 -175 -39 -34 -9 -69 -18 -77 -20 -8 -2
-34 -10 -58 -19 -23 -8 -46 -16 -50 -17 -4 -1 -11 -3 -17 -5 -5 -2 -38 -12
-71 -23 -57 -19 -203 -86 -248 -114 -148 -92 -244 -266 -238 -432 6 -141 110
-337 292 -549 88 -103 290 -277 358 -309 12 -5 22 -14 22 -19 0 -4 4 -8 9 -8
5 0 33 -14 60 -32 58 -36 75 -31 43 12 -12 16 -22 32 -22 35 0 3 -16 27 -35
54 -19 26 -35 53 -35 60 0 6 -4 11 -8 11 -5 0 -17 16 -28 35 -10 19 -22 35
-26 35 -5 0 -8 4 -8 9 0 5 -28 53 -62 107 -83 131 -174 312 -198 395 -24 79
-31 171 -16 217 12 42 76 116 119 137 51 27 101 43 158 52 57 8 392 9 469 0
77 -8 154 -18 185 -23 17 -3 41 -7 55 -9 14 -2 44 -7 68 -10 25 -4 42 -3 42 3
0 6 -22 37 -49 69 -91 109 -187 290 -205 386 l-7 38 -67 -2 c-37 -1 -118 -13
-180 -25z"/>
<path d="M529 3216 c-2 -2 -28 -7 -58 -10 -173 -21 -310 -93 -383 -201 -18
-27 -36 -52 -40 -55 -3 -3 -14 -32 -23 -65 -16 -53 -18 -127 -22 -622 l-5
-563 116 0 c73 0 117 4 122 11 5 9 7 60 3 159 -2 88 5 400 10 400 3 0 30 -9
60 -21 30 -11 70 -22 90 -24 20 -3 47 -7 61 -10 31 -7 259 -7 270 0 5 3 21 7
37 9 100 13 241 103 305 196 65 94 80 147 80 288 1 113 -1 128 -28 190 -32 75
-31 74 -98 148 -79 87 -163 129 -321 159 -38 7 -171 16 -176 11z m161 -149
c88 -23 155 -74 184 -140 37 -86 41 -104 40 -222 -1 -145 -21 -208 -86 -274
-68 -69 -113 -84 -248 -84 -102 0 -121 3 -170 25 -65 30 -99 64 -137 138 -27
53 -28 60 -28 200 0 138 2 147 28 197 43 82 94 127 177 155 50 17 185 20 240
5z"/>
<path d="M3229 3206 c0 -1 -2 -298 -4 -661 -1 -363 -6 -702 -9 -753 l-7 -93
128 3 128 3 2 145 c2 190 10 264 33 310 25 49 99 112 180 152 159 80 328 16
407 -152 30 -64 36 -108 37 -240 1 -260 -32 -377 -142 -509 -65 -77 -73 -95
-45 -105 64 -25 282 138 357 267 13 23 35 79 49 124 22 71 25 97 22 210 -2
132 -23 220 -74 322 -53 104 -142 182 -253 223 -32 11 -58 24 -58 29 0 13 23
32 155 129 69 51 124 94 122 96 -2 2 -35 6 -73 10 -159 13 -162 12 -196 -12
-18 -13 -42 -30 -53 -38 -65 -47 -204 -149 -223 -166 -13 -11 -26 -20 -28 -20
-3 0 -10 -5 -17 -10 -26 -22 -187 -140 -190 -140 -3 0 -5 28 -5 63 0 34 -1
231 -2 438 l-3 375 -118 0 c-66 0 -119 0 -120 0z"/>
<path d="M4658 3196 c0 -6 -2 -112 -4 -236 -1 -124 -3 -230 -3 -236 -1 -8 -36
-11 -112 -10 -61 1 -114 -1 -117 -4 -4 -3 -8 -30 -9 -61 l-2 -56 119 1 118 1
4 -25 c2 -14 3 -215 2 -447 l0 -423 107 0 c63 0 110 4 114 10 5 8 8 216 4 320
0 16 1 140 2 180 0 14 1 106 2 204 l2 180 114 0 c128 1 130 2 123 76 -3 28 -9
40 -21 41 -9 1 -62 1 -117 2 l-102 1 -1 240 c0 133 0 243 -1 246 -1 12 -220 8
-222 -4z"/>
<path d="M5299 3187 c-75 -37 -101 -149 -53 -223 24 -36 87 -65 133 -62 75 4
151 81 151 152 0 40 -36 111 -66 131 -39 25 -117 26 -165 2z"/>
<path d="M5698 3201 c0 -3 -2 -342 -3 -753 l-1 -748 120 0 121 0 1 183 c0 222
9 259 75 331 134 146 344 174 465 60 17 -16 50 -65 74 -108 l43 -79 -2 -156
c-3 -176 -7 -225 -25 -316 -12 -57 -62 -143 -121 -210 -43 -47 -58 -74 -51
-90 8 -22 45 -18 103 14 120 64 209 147 258 238 11 21 22 40 25 43 5 4 27 68
37 110 18 71 23 228 10 305 -34 190 -136 343 -269 404 -35 16 -73 32 -85 36
-21 6 -33 35 -15 35 4 0 24 15 44 33 20 17 78 61 127 97 50 36 91 68 91 73 0
4 -8 7 -17 8 -10 0 -38 2 -63 5 -159 15 -146 17 -224 -39 -39 -29 -78 -57 -86
-64 -27 -22 -336 -250 -363 -268 -27 -17 -35 -11 -27 20 1 6 2 15 2 20 -1 6
-3 192 -5 415 l-3 405 -117 1 c-64 1 -118 -1 -119 -5z"/>
<path d="M1837 2714 c-1 -1 -36 -4 -77 -7 -89 -7 -119 -13 -183 -33 -157 -51
-277 -180 -316 -339 -14 -57 -24 -292 -22 -537 l1 -98 118 0 119 0 2 53 c1 28
3 167 6 307 5 285 6 302 35 362 53 112 137 161 285 167 53 3 82 5 120 10 6 0
10 26 10 56 0 30 -4 55 -10 56 -29 2 -87 4 -88 3z"/>
<path d="M5261 2710 c-4 -3 -8 -231 -7 -507 l0 -502 114 -3 c63 -2 119 0 126
4 8 5 11 143 12 508 0 448 -1 500 -15 501 -60 4 -224 3 -230 -1z"/>
<path d="M2408 2705 c-2 -2 -19 -7 -38 -10 -94 -16 -250 -128 -266 -191 -3
-13 -10 -24 -15 -24 -5 0 -8 -3 -7 -7 0 -5 -2 -15 -5 -23 -46 -113 -57 -288
-26 -408 23 -90 68 -174 118 -221 37 -34 135 -87 181 -97 114 -26 242 -26 305
0 22 9 67 45 100 80 l60 64 -1 -84 -1 -84 129 0 129 0 -6 218 c-11 472 -25
539 -132 649 -98 101 -189 133 -389 138 -73 2 -134 2 -136 0z m217 -139 c70
-15 115 -48 146 -107 29 -57 34 -93 34 -239 -1 -145 -11 -193 -59 -268 -54
-85 -122 -120 -225 -115 -177 7 -252 125 -246 388 1 66 5 134 9 150 19 83 85
167 151 189 35 13 138 14 190 2z"/>
<path d="M7325 2695 c-33 -8 -65 -16 -71 -18 -6 -1 -22 -9 -35 -18 -13 -8 -35
-20 -49 -27 -58 -30 -106 -90 -143 -182 -60 -150 -65 -310 -12 -466 43 -128
121 -204 254 -250 68 -23 78 -25 169 -29 142 -6 208 24 297 135 l20 25 3 -82
3 -83 120 0 121 0 -5 323 c-2 177 -7 331 -10 342 -3 11 -10 32 -16 48 -6 15
-8 27 -6 27 9 0 -59 105 -84 130 -62 61 -163 114 -231 122 -14 2 -29 6 -35 9
-22 12 -232 8 -290 -6z m273 -136 c51 -16 101 -55 108 -84 3 -14 10 -25 14
-25 18 0 34 -109 34 -225 0 -163 -29 -251 -104 -325 -47 -46 -95 -63 -175 -64
-118 -1 -208 69 -239 185 -16 63 -14 334 3 388 19 60 79 130 134 155 34 15
172 12 225 -5z"/>
</g>
</svg>
