<svg xmlns="http://www.w3.org/2000/svg" width="800" height="540" version="1.0" viewBox="0 0 600 405"
    class="praktika-logo-nav" fill="#e5097f" data-v-d55dd47a="">
    <path id="svg1"
        d="M271 7.7c-23.4 16.9-43.3 35.6-55.3 51.8C198.1 83.3 189 110.1 189 138c0 26 9 43.1 36.6 70.1 18.4 17.9 40.5 34 71.4 52.1 18.7 11 40.4 22.4 39.9 21.1-.2-.6-7.8-7.6-16.9-15.5-47.9-42-74.7-75.5-80.6-100.6-5.9-25.3 13.8-45.7 51-52.7 11.9-2.3 36.9-5.2 55.1-6.5 18.3-1.2 24.9-2 24.2-2.6-1.3-1.3-18.6-3.5-36.4-4.6-23.8-1.4-52.2-.2-74.3 3.3-18.3 2.9-23.1 2.9-26.7.3-7.1-5.3-8.7-15.3-4.4-26.6 4.6-11.9 26.8-42.4 49.9-68.6 3.5-3.9 5.8-7.2 5-7.2-.7 0-6 3.5-11.8 7.7z"
        data-v-d55dd47a="">
    </path>
    <path id="svg2"
        d="M252.5 60.4c-6.8 3.1-10.9 6.8-13.4 11.9C233 84.8 240.4 95 255.5 95c18.9 0 33.2-17.8 24.8-30.6-4.3-6.6-18.1-8.6-27.8-4zM168.8 160c-21.2 4-43.9 11.9-54 18.8-14.2 9.8-20 25.9-14.9 41 5.3 15.6 22.9 37.8 40.1 50.3 7.4 5.4 18.2 12 18.7 11.5.3-.2-3.9-6.8-9.1-14.6-17.4-25.7-25.1-41.3-26.2-52.8-1-10.2 4.5-17.2 16-20.8 10.8-3.3 35.3-2.8 58.4 1.2 4.6.8 8.7 1.2 9 1 .2-.3-1.8-3-4.6-6.1-5.7-6.2-13.6-21-14.7-27.4-.7-4.1-.7-4.1-4.8-4-2.3 0-8.5.9-13.9 1.9zM35 262c-12.9 1.6-23.3 7.2-29 15.7-5.8 8.9-6 10.6-6 56V375h18v-21.5c0-11.8.1-21.5.3-21.5.1 0 2.7.9 5.7 2.1 7 2.7 23.3 3.7 32.2 2 12.8-2.5 22.5-9.9 27.7-21 2.2-4.9 2.6-6.9 2.6-15.6 0-8.9-.3-10.7-2.9-16.2-3.4-7.5-10.4-14.4-17.9-17.8-4.3-2-19.5-4.8-23.2-4.4-.5.1-3.9.5-7.5.9zm21.7 12.1c8.9 4.3 13 14 12.1 28.5-.5 9.1-2.8 14.5-8.2 19.2-4.6 4-10.2 5.5-19.6 5-10.2-.4-16.1-3.9-20.2-11.7-2.5-4.8-2.8-6.3-2.8-15.5 0-8.5.4-10.9 2.4-15.2 4.3-9.2 13.4-13.8 25.5-12.9 3.6.2 8.3 1.4 10.8 2.6zM242 310.2c0 26.6-.3 52-.7 56.5l-.6 8.3H260v-14.7c0-16.8 1.2-21 7.8-26.1 12.5-9.9 23.5-10.5 32.8-2 7.9 7.3 10.3 17.4 8.5 36.4-1.3 14.4-3.8 20.8-10.6 28.3-4.1 4.4-5.1 6.1-4.3 6.9 1.7 1.7 3.3 1.5 8.8-1.3 7.8-3.9 17.3-13.4 20.4-20.5 8.2-18.3 4.4-43.6-8.6-56.2-2.8-2.7-6.7-5.3-9.5-6.3-2.6-.9-5.7-2-6.7-2.4-1.5-.6.3-2.3 9.8-9.1 6.3-4.6 11.5-8.4 11.3-8.5-.1-.2-4.2-.6-9.2-.9l-9-.7L281 313l-20.5 15.1-.3-33.1-.2-33h-18v48.2zM349 280.5V299h-18v9h18v67h17v-67h18v-9h-18v-37h-17v18.5zM397.2 263.3c-3.4 1.9-5.5 5.5-5.6 9.7-.2 7.2 4.5 12 11.8 12 4.4 0 10.2-4.7 11.1-9 .9-4-1.1-9.5-4.2-12-2.9-2.3-9.5-2.6-13.1-.7zM427 318.5V375h18v-14.5c0-16.4.7-19.1 6.4-24.9 9.4-9.3 21.9-11.8 31.2-6.1 3.9 2.5 5.6 4.4 8.4 9.9l3.5 6.9-.1 13.6c-.1 20.1-2.6 28.4-11.1 37.3-4.6 4.7-5.3 7.8-1.7 7.8 3.1 0 13.4-6.3 18.6-11.3 10-9.9 14.4-25.4 12-42-2.2-15.3-11-28.3-21.7-32.1-2.8-1-5.8-2.1-6.8-2.5-1.5-.5.6-2.4 9.7-9 6.4-4.7 11.5-8.5 11.3-8.6-.1-.2-4.2-.5-9.2-.9l-9-.7-20.5 15.2-20.5 15.1-.3-33.1-.2-33.1h-18v56.5zM123.4 300.5c-15.6 3.4-26.1 13.5-29.3 28.3-.6 2.9-1.1 14.4-1.1 25.7V375h18v-22c0-24.7.8-30.3 5.3-36.2 4.8-6.2 9.5-8.2 20-8.6l8.7-.4V299l-7.7.1c-4.3 0-10.6.7-13.9 1.4zM179 300c-6.5 1.4-14.5 5.6-17.6 9.3-11.9 14.1-12.1 41.7-.3 55.1 6.2 7.1 19.1 11.4 30.9 10.3 7.2-.6 11.4-2.9 15.7-8.6l3.3-4.3V375H230.3l-.6-23.2c-.6-28.9-1.8-34.1-10.1-42.3-6.9-6.9-13.7-9.5-26.5-10-5.3-.2-11.6 0-14.1.5zm23.3 11.9c5.4 3.3 8.1 9.8 8.5 20.2.5 10.8-1 18.3-4.8 24.2-4.1 6.5-9.4 9-17.7 8.5-6.9-.4-10.3-2.3-14-7.7-4.2-6.2-5.4-24.3-2.3-35.4 1.4-4.8 6.3-10.4 10.4-11.7 5.2-1.6 15.9-.6 19.9 1.9zM394 337v38h19v-76h-19v38zM550 300.1c-6.3 1.2-14.5 5.5-17.6 9.2-11.9 14.1-12.1 41.7-.3 55.1 6.2 7.1 19.1 11.4 30.9 10.3 7.2-.6 11.4-2.9 15.7-8.6l3.3-4.3V375h18v-23.4c0-20.5-.2-24.2-2-29.8-2.3-7.4-7.1-13.6-13.5-17.3-7.9-4.7-23.2-6.6-34.5-4.4zm23.3 11.8c5.4 3.3 8.1 9.8 8.5 20.2.9 20.9-6.7 32.9-20.8 32.9-9 0-15.3-4.4-18.1-12.7-1.7-4.9-1.7-24.5-.1-30.1 1.6-5.3 6.4-10.9 10.6-12.2 5.2-1.6 15.9-.6 19.9 1.9z"
        data-v-d55dd47a="">
    </path>
</svg>