<svg xmlns="http://www.w3.org/2000/svg" width="1003.093" height="382.693"><path fill="#FFF" fill-rule="evenodd" d="M279.343-.007l88.565 127.1-.083-80.878c-.022-22.752-3.322-40.122-30.273-39.558V-.007h69.196v6.664c-25.112 3.639-27.479 14.451-27.479 39.558v202.249h-5.274L232.336 46.214v154.44c0 23.165 7.995 35.643 32.117 35.643v6.604h-74.31v-6.604c24.432-.257 30.906-12.672 30.906-35.642V29.219l-4.484-6.482c-4.429-6.42-8.332-10.638-11.76-12.717-3.376-2.017-8.28-3.119-14.662-3.363V-.007zm241.23 14.002l.094 69.062c3.562-5.533 8.148-11.18 13.544-15.389 20.128-15.696 50.054-3.56 49.393 28.159-.49 23.517-18 44.83-35.79 58.838-7.72 6.078-16.249 11.479-27.117 18.908l-.006 37.134c.757 23.309 7.869 25.59 28.353 25.59v6.604H421.303v-6.604c26.728 0 29.482-9.528 29.482-34.97V41.568c0-18.397.674-34.91-22.52-34.91h-6.962V-.008h194.932v69.7h-6.328c-4.115-47.365-28.358-55.698-71.043-55.698zM800.612-.007l-104.95 229.274h21.671c52.462 0 80.175-19.995 89.607-74.163h6.013l-8.492 87.797h-191.87L717.7 13.26l-12.015.05c-39.206.16-60.94 10.39-70.573 57.789h-5.695l5.695-71.106zM518.268 83.517c-3.508-5.418-7.73-10.949-13.044-15.072-19.823-15.372-49.295-3.485-48.645 27.578.481 23.034 17.728 43.908 35.249 57.626 7.603 5.954 16.003 11.243 26.705 18.519zm471.341 269.39c-1.612 1.612-4.984 3.372-7.33 3.372-2.784 0-6.156-2.054-6.156-6.599 0-3.078 1.905-4.836 5.424-6.302 1.906-.88 6.156-2.64 8.062-3.666zm6.303-18.177c0-4.547-.879-7.917-3.81-10.41-1.907-1.611-4.545-2.345-7.037-2.345-4.984 1.026-10.704 4.252-13.046 6.01-1.615 1.172-2.787 2.198-2.787 3.518 0 1.906 2.2 3.518 3.664 3.518 1.32 0 2.055-.44 2.492-1.906.588-2.638 1.467-4.544 2.64-5.716.879-1.026 2.344-1.612 4.105-1.612 4.398 0 7.476 3.518 7.476 9.675v1.32c-1.906 1.466-8.21 3.81-13.633 5.57-4.837 1.612-7.184 4.399-7.184 8.503 0 5.424 4.399 10.554 10.555 10.554 2.64 0 6.89-3.226 10.408-5.57.44 1.466.881 2.784 2.052 3.958.881.878 2.786 1.612 3.958 1.612l7.331-4.398-.88-1.906c-.88.44-2.197.88-3.224.88-1.465 0-3.08-1.172-3.08-5.13zm-43.483-29.914c-2.344 0-4.396 1.906-4.396 4.544 0 2.2 2.052 4.253 4.396 4.253 2.492 0 4.254-2.052 4.254-4.399 0-2.492-1.762-4.398-4.104-4.398zm-2.784 46.911c0 5.865-.733 6.45-6.304 6.89v2.053h19.206v-2.052c-5.574-.44-6.304-1.026-6.304-6.89v-29.613c-3.664 1.466-7.77 2.638-12.167 3.37v1.76c4.984.88 5.57 1.026 5.57 6.891zm-49.492 9.766c3.519-9.531 7.183-18.472 10.555-27.123 3.373 8.943 7.037 17.592 10.555 27.123h2.492c3.958-11.584 7.917-23.164 10.554-29.906 1.762-4.693 2.494-5.72 6.891-6.451v-1.906h-15.687v1.906c5.572.88 6.304 1.172 5.132 5.716-1.76 6.6-4.252 14.367-6.158 20.083h-.146c-3.664-9.234-7.33-18.468-10.554-27.265h-2.347c-3.664 9.823-7.183 19.351-10.115 27.12h-.145c-2.199-6.45-4.544-13.779-6.745-20.378-1.172-3.956-.732-4.396 4.546-5.276v-1.906h-17.738v1.906c4.252.586 4.838 1.172 6.45 5.716 3.518 10.263 6.891 20.524 9.968 30.64zm-39.494-39.404c-7.768 0-19.058 6.45-19.058 20.524 0 9.528 7.183 18.911 19.058 18.911 8.502 0 18.912-6.596 18.912-20.378 0-10.554-8.211-19.057-18.766-19.057zm-.88 2.787c7.625 0 11.874 8.354 11.874 18.03 0 11.873-4.544 15.832-10.114 15.832-7.184 0-12.02-8.063-12.02-18.912 0-9.529 4.544-14.95 10.114-14.95zm-42.588 27.002c0 5.716-.587 6.302-6.158 6.742v2.053h20.232v-2.053c-6.744-.44-7.476-1.026-7.476-6.742v-15.247c1.904-4.839 4.69-8.063 7.036-8.063 1.467 0 2.639.586 3.811 1.907.585.44 1.32.586 2.345.145 1.612-.731 2.639-2.492 2.639-4.104 0-1.906-2.052-4.252-4.984-4.252-4.25 0-8.063 4.398-10.701 9.237h-.146v-9.529c-3.958 1.758-8.062 2.784-12.169 3.518v1.758c5.279.586 5.57.88 5.57 6.745zm-90.607-46.916c-2.641 0-3.519-.146-4.548-2.2h-1.757c-.146 3.812-.586 10.408-1.027 15.978h2.347c.877-3.81 2.052-6.302 3.078-7.768 1.466-2.198 3.078-3.078 12.462-3.078h15.684c-12.462 17.445-25.068 34.448-37.383 51.453l.735 1.32h45.297l1.432-6.536c-1.079-2.073-1.265-2.93-1.917-5.136-1.11 2.334-2.219 4.058-3.326 5.368-2.492 2.64-6.01 3.372-17.005 3.372-6.01 0-11.875-.146-14.807-.586 12.167-17.3 24.482-34.156 36.648-51.016l-.585-1.171zm-63.639 18.3c-3.226-.147-4.252-.733-4.838-2.053h-1.467c-.73 3.812-2.052 9.383-3.077 12.755l2.197.586 1.175-2.198c2.344-4.693 3.81-6.305 10.554-6.305h7.475c-7.035 11.29-14.51 22.576-21.988 33.13l.587 1.467h28.585c1.467-3.518 2.639-7.182 3.959-10.41l-2.2-1.025-1.172 2.052c-3.224 4.984-4.984 6.596-11.727 6.596h-8.943c7.183-11.286 14.514-22.427 21.695-33.276l-.44-1.32zm-16.83 9.504c-.146-2.2-1.172-7.33-1.907-9.237-1.757-.732-4.104-1.466-7.768-1.466-7.916 0-13.047 5.133-13.047 10.995 0 6.45 5.571 9.529 10.992 11.73 4.254 1.757 6.746 3.957 6.746 7.916 0 3.958-2.934 6.01-6.158 6.01-5.278 0-9.382-4.693-10.994-10.703l-2.052.44c.146 3.078.878 8.943 1.612 10.115 1.321 1.32 5.425 2.932 9.821 2.932 7.039 0 14.367-3.958 14.367-11.875 0-5.862-4.544-9.088-11.142-11.58-3.664-1.613-7.33-3.665-7.33-7.329 0-3.518 2.201-5.864 5.718-5.864 4.251 0 7.623 3.372 9.235 8.502zm-41.782 18.914c-3.078 2.784-6.596 4.399-9.82 4.399-4.104 0-7.77-2.2-7.77-9.823V334.38c0-5.716 0-9.529.293-12.021-1.32.294-3.664.586-6.01.88-2.346.146-4.69.44-6.45.586v1.76l2.785.44c2.054.44 2.784 1.027 2.784 5.863v16.419c0 9.529 5.134 13.047 10.85 13.047 2.346 0 4.398-.732 6.89-2.198 2.492-1.32 4.396-2.932 6.448-4.544v6.156l.44.586c1.615-.44 3.812-1.172 6.011-1.758 2.347-.44 4.839-1.026 6.744-1.32v-2.052h-2.492c-3.372-.146-4.104-.732-4.104-5.13V322.36c-1.175.294-3.227.586-5.57.88-2.493.146-5.72.44-8.062.586v1.76l3.224.44c2.932.44 3.81 1.027 3.81 5.863zm-38.846-52.338c-3.078 1.026-9.088 2.346-13.632 2.932v1.906c6.45.44 7.036.586 7.036 6.45v12.46c-2.052-.733-4.839-1.027-6.159-1.027-11.727 0-22.281 9.677-22.136 21.112 0 12.021 9.09 18.323 16.128 18.323 1.027 0 3.224-.586 6.743-2.638l5.424-3.078v5.716c4.984-1.906 11.581-2.932 13.486-3.224v-2.052l-2.932-.148c-3.226-.292-3.958-.878-3.958-5.425zm-6.596 53.508c-2.052 1.466-5.424 3.372-8.651 3.372-5.716 0-12.019-4.984-12.019-15.247 0-12.753 8.063-15.831 11.727-15.831 2.932 0 6.743 1.318 8.943 4.396zm-70.163-1c0 5.716-1.025 6.302-6.45 6.742v2.052h18.911v-2.052c-5.132-.44-5.864-1.026-5.864-6.742v-19.792c2.639-2.346 6.303-4.839 9.82-4.839 5.866 0 7.918 4.107 7.918 10.118v14.072c0 6.157-.732 6.743-5.716 7.183v2.052h18.03v-2.052c-4.984-.44-5.718-1.026-5.718-6.742v-16.565c0-8.211-4.25-13.05-11.14-13.05-2.639 0-4.839 1.026-7.183 2.64a134.925 134.925 0 00-6.01 4.25v-7.182c-3.52 1.758-7.917 2.784-12.022 3.519v1.757c4.984.88 5.424 1.175 5.424 6.891zm-23.22-.112c-3.077 2.786-6.596 4.398-9.968 4.398-3.959 0-7.623-2.2-7.623-9.823v-11.875c0-5.716 0-9.529.294-12.02-1.32.294-3.666.588-6.011.88-2.345.145-4.69.44-6.45.585v1.76l2.638.441c2.052.44 2.932 1.026 2.932 5.862v16.42c0 9.528 4.985 13.046 10.85 13.046 2.345 0 4.25-.732 6.742-2.198 2.639-1.32 4.544-2.932 6.596-4.544v6.156l.44.586c1.613-.44 3.812-1.172 6.01-1.758 2.347-.44 4.84-1.026 6.597-1.32v-2.052h-2.491c-3.225-.146-4.105-.732-4.105-5.13v-28.735c-1.172.295-3.079.589-5.424.88-2.492.146-5.863.44-8.063.586v1.76l3.225.441c2.932.44 3.811 1.026 3.811 5.862zm-63.725-1.836c0 7.622-.734 8.354-7.77 8.794v2.052h23.602v-2.052c-8.063-.586-8.796-1.172-8.796-8.794V334.36h7.781c8.061 0 8.355 1.029 9.381 7.04h2.346v-16.715h-2.346c-1.026 5.57-1.32 6.451-9.381 6.451h-7.781v-20.523c0-2.638.293-2.784 2.786-2.784h6.156c7.036 0 9.09.732 10.703 3.078 1.172 1.612 1.905 3.664 2.637 7.182l2.347-.294c-.441-4.104-.88-9.38-.88-12.753h-38.261v2.052c6.742.586 7.476 1.172 7.476 8.797zm-74.646-24.136c2.184.852 2.922 2.45 4.204 5.766 2.786 6.305 6.598 16.713 10.115 26.388.44 1.466.733 2.492.293 3.81-.44 1.174-1.172 2.932-2.785 6.01-2.052 3.959-3.664 6.01-6.45 7.625-1.32 1.026-2.2 1.904-2.2 3.224 0 1.906 2.347 4.104 4.84 4.104 1.171 0 2.198-.44 2.637-2.052 1.32-4.69 3.08-9.528 8.942-23.161 6.158-14.367 9.09-21.695 11.288-26.094 2.492-4.984 2.932-5.57 7.624-6.305v-1.906h-15.833v1.906c4.984.735 5.717 1.612 4.545 4.839-1.76 5.424-5.864 16.27-8.209 21.695l-8.21-21.841c-1.173-3.08-.44-4.107 3.518-4.693v-1.906h-13.643c-6.1 0 1.364.003-4.622.003h-12.164v1.903c5.716.88 6.302 1.175 5.13 5.72-1.76 6.595-4.252 14.364-6.01 20.082h-.294c-3.665-9.234-7.184-18.47-10.556-27.268h-2.345c-3.664 9.823-7.035 19.352-9.968 27.123h-.292c-2.2-6.45-4.545-13.782-6.597-20.378-1.174-3.958-.734-4.398 4.397-5.279v-1.903h-17.737v1.903c4.25.589 4.984 1.175 6.449 5.72 3.665 10.26 6.89 20.523 9.97 30.637h2.638c3.519-9.529 7.036-18.471 10.408-27.12 3.372 8.943 7.183 17.591 10.555 27.12h2.492c4.105-11.58 8.062-23.161 10.554-29.906 1.471-3.63 2.175-5.07 4.488-5.873 1.098-.377 1.75-.312 2.828.107zm-83.281-3.703c-7.916 0-19.204 6.45-19.204 20.524 0 9.528 7.184 18.911 19.204 18.911 8.357 0 18.764-6.596 18.764-20.375 0-10.557-8.208-19.06-18.764-19.06zm-1.025 2.787c7.769 0 12.02 8.356 12.02 18.03 0 11.876-4.691 15.834-10.115 15.834-7.33 0-12.167-8.065-12.167-18.911 0-9.529 4.544-14.953 10.262-14.953zm-29.026-25.508c-3.078 1.026-9.089 2.346-13.633 2.932v1.906c6.45.44 7.036.586 7.036 6.45v12.46c-2.053-.733-4.839-1.027-6.157-1.027-11.875 0-22.283 9.677-22.136 21.112 0 12.021 9.089 18.323 16.125 18.323.88 0 3.225-.586 6.744-2.638l5.424-3.078v5.716c4.984-1.906 11.58-2.932 13.34-3.224v-2.052l-2.785-.148c-3.372-.292-3.958-.878-3.958-5.425zm-6.597 53.508c-2.199 1.466-5.424 3.372-8.65 3.372-5.717 0-12.02-4.984-12.02-15.247 0-12.753 8.062-15.831 11.727-15.831 2.932 0 6.744 1.318 8.943 4.396zm-55.12-30.787c-7.77 0-19.057 6.45-19.057 20.524 0 9.528 7.182 18.911 19.057 18.911 8.503 0 18.91-6.596 18.91-20.375 0-10.557-8.209-19.06-18.763-19.06zm-.88 2.787c7.623 0 11.875 8.356 11.875 18.03 0 11.876-4.544 15.834-9.968 15.834-7.331 0-12.168-8.065-12.168-18.911 0-9.529 4.545-14.953 10.114-14.953zm-43.243 27.007c0 5.717-.733 6.302-6.304 6.743v2.052h20.23V358.6c-6.743-.44-7.476-1.026-7.476-6.743V336.61c1.906-4.836 4.838-8.063 7.037-8.063 1.466 0 2.639.586 3.957 1.907.44.44 1.174.586 2.2.146 1.612-.732 2.638-2.493 2.638-4.105 0-1.906-2.052-4.25-4.984-4.25-4.251 0-8.062 4.396-10.555 9.235h-.293v-9.529c-3.958 1.76-8.062 2.787-12.167 3.518v1.76c5.277.587 5.717.878 5.717 6.743zm-22.958 1.146c-1.613 1.615-4.985 3.373-7.33 3.373-2.786 0-6.158-2.052-6.158-6.597 0-3.078 1.906-4.838 5.424-6.304 1.906-.878 6.158-2.638 8.064-3.664zm6.303-18.177c0-4.544-.88-7.917-3.812-10.409-1.905-1.612-4.544-2.346-7.037-2.346-4.983 1.029-10.7 4.253-13.046 6.013-1.613 1.172-2.785 2.198-2.785 3.518 0 1.904 2.199 3.518 3.664 3.518 1.32 0 2.052-.44 2.492-1.906.587-2.638 1.467-4.544 2.64-5.719.879-1.026 2.345-1.612 4.104-1.612 4.398 0 7.477 3.519 7.477 9.675v1.32c-1.906 1.466-8.21 3.813-13.634 5.57-4.838 1.613-7.183 4.399-7.183 8.503 0 5.425 4.398 10.555 10.554 10.555 2.64 0 6.89-3.224 10.41-5.57.44 1.466.878 2.786 2.051 3.958.88.88 2.786 1.612 3.959 1.612l7.329-4.396-.879-1.906c-.88.44-2.2.877-3.225.877-1.467 0-3.08-1.172-3.08-5.13zm-81.781 3.112c0 7.768-.293 12.461-.586 15.1-.44 4.252-2.64 5.424-7.623 5.57v2.051h20.816v-2.052c-5.864-.291-8.063-1.317-8.503-5.716-.146-2.492-.586-7.185-.586-14.953v-21.403h.147l36.796 44.71h2.638V327.09c0-8.062.293-12.46.586-15.099.44-3.664 2.492-4.838 7.477-5.13v-1.906H39.875v1.906c6.156.44 8.208 1.466 8.648 5.425.293 2.343.586 6.742.586 14.804v21.258h-.146l-36.356-43.393H0v1.906c4.105.44 6.01 1.026 7.77 3.224 1.612 2.052 1.759 2.786 1.759 9.089zm790.088-38.573c-3.081 1.026-9.089 2.347-13.636 2.932v1.907c6.451.44 7.038.586 7.038 6.45v12.459c-2.052-.732-4.836-1.026-6.158-1.026-11.725 0-22.134 9.677-22.134 21.112 0 12.02 9.234 18.322 16.125 18.322 1.025 0 3.224-.586 6.89-2.638l5.277-3.078v5.716c4.984-1.906 11.582-2.932 13.486-3.224v-2.052l-2.929-.148c-3.227-.292-3.959-.878-3.959-5.424zm-6.598 53.508c-2.052 1.466-5.423 3.372-8.65 3.372-5.716 0-12.02-4.984-12.02-15.247 0-12.753 8.211-15.83 11.727-15.83 2.932 0 6.744 1.317 8.943 4.395v23.31"/></svg>